<mxfile host="app.diagrams.net" modified="2023-03-30T15:18:05.285Z" agent="Mozilla/5.0 (X11; Linux x86_64) AppleWebKit/537.36 (KHTML, like Gecko) Chrome/111.0.0.0 Safari/537.36" version="21.1.2" etag="1R-IqrLNRhgUHxYN8ksc" type="github">
  <diagram name="페이지-1" id="_29SI5LWRO9Elu8IHPfa">
    <mxGraphModel>
      <root>
        <mxCell id="0" />
        <mxCell id="1" parent="0" />
      </root>
    </mxGraphModel>
  </diagram>
</mxfile>
